HIERARCHY
ROOT Hips
{
	OFFSET 0.000000 71.427986 0.000000
	CHANNELS 6 Xposition Yposition Zposition Xrotation Yrotation Zrotation
	JOINT Pelvis
	{
		OFFSET 0.000000 0.000000 0.000000
		CHANNELS 3 Xrotation Yrotation Zrotation
		JOINT LeftUpLeg
		{
			OFFSET 6.797100 -2.508499 -1.318700
			CHANNELS 3 Xrotation Yrotation Zrotation
			JOINT LeftLeg
			{
				OFFSET 0.069008 -29.241863 0.690200
				CHANNELS 3 Xrotation Yrotation Zrotation
				JOINT LeftFoot
				{
					OFFSET -0.069008 -29.568123 -0.266800
					CHANNELS 3 Xrotation Yrotation Zrotation
					JOINT LeftToeBase
					{
						OFFSET 3.145500 -8.631000 16.059900
						CHANNELS 3 Xrotation Yrotation Zrotation
						End Site
						{
							OFFSET 0.000000 18.501587 0.000000
						}
					}
				}
			}
			JOINT Left_ShortSleeve
			{
				OFFSET 0.265923 -10.480953 1.153800
				CHANNELS 3 Xrotation Yrotation Zrotation
				End Site
				{
					OFFSET 1.725763 19.823879 0.000000
				}
			}
		}
		JOINT RightUpLeg
		{
			OFFSET -6.797100 -2.508499 -1.318700
			CHANNELS 3 Xrotation Yrotation Zrotation
			JOINT RightLeg
			{
				OFFSET -0.082453 -29.241932 0.688000
				CHANNELS 3 Xrotation Yrotation Zrotation
				JOINT RightFoot
				{
					OFFSET 0.082453 -29.568058 -0.264600
					CHANNELS 3 Xrotation Yrotation Zrotation
					JOINT RightToeBase
					{
						OFFSET -3.115300 -8.682800 16.113400
						CHANNELS 3 Xrotation Yrotation Zrotation
						End Site
						{
							OFFSET 0.000000 18.567114 0.000000
						}
					}
				}
			}
			JOINT Right_ShortSleeve
			{
				OFFSET -0.265923 -10.480953 1.153800
				CHANNELS 3 Xrotation Yrotation Zrotation
				End Site
				{
					OFFSET -1.725766 19.823910 0.000000
				}
			}
		}
	}
	JOINT Spine
	{
		OFFSET 0.000000 13.368103 0.470500
		CHANNELS 3 Xrotation Yrotation Zrotation
		JOINT Spine1
		{
			OFFSET 0.147000 13.837402 0.538800
			CHANNELS 3 Xrotation Yrotation Zrotation
			JOINT Spine2
			{
				OFFSET 0.168000 16.242897 -1.435500
				CHANNELS 3 Xrotation Yrotation Zrotation
				JOINT Neck
				{
					OFFSET 0.217200 18.631500 -1.679100
					CHANNELS 3 Xrotation Yrotation Zrotation
					JOINT Head
					{
						OFFSET 0.000000 6.599396 1.385900
						CHANNELS 3 Xrotation Yrotation Zrotation
						JOINT Hat
						{
							OFFSET -0.532200 27.220596 -10.096100
							CHANNELS 3 Xrotation Yrotation Zrotation
							End Site
							{
								OFFSET 0.000000 22.029861 0.000000
							}
						}
						JOINT HairD
						{
							OFFSET -10.777400 17.437393 -1.325900
							CHANNELS 3 Xrotation Yrotation Zrotation
							JOINT HairD1
							{
								OFFSET -3.290299 -11.051193 1.062200
								CHANNELS 3 Xrotation Yrotation Zrotation
								End Site
								{
									OFFSET 0.000000 11.579437 0.000000
								}
							}
						}
						JOINT HairB
						{
							OFFSET -10.777400 17.437393 1.467900
							CHANNELS 3 Xrotation Yrotation Zrotation
							JOINT HairB1
							{
								OFFSET -1.561200 -12.956299 3.590200
								CHANNELS 3 Xrotation Yrotation Zrotation
								End Site
								{
									OFFSET 0.000000 13.534866 0.000000
								}
							}
						}
						JOINT HairA
						{
							OFFSET 9.713100 17.437393 1.467900
							CHANNELS 3 Xrotation Yrotation Zrotation
							JOINT HairA1
							{
								OFFSET 1.561200 -12.956299 3.590200
								CHANNELS 3 Xrotation Yrotation Zrotation
								End Site
								{
									OFFSET 0.000000 13.534866 0.000000
								}
							}
						}
						JOINT HairC
						{
							OFFSET 9.713100 17.437393 -1.325900
							CHANNELS 3 Xrotation Yrotation Zrotation
							JOINT HairC1
							{
								OFFSET 3.290300 -11.051193 1.062200
								CHANNELS 3 Xrotation Yrotation Zrotation
								End Site
								{
									OFFSET 0.000000 11.579437 0.000000
								}
							}
						}
					}
				}
				JOINT LeftShoulder
				{
					OFFSET 5.101800 15.108002 -2.763700
					CHANNELS 3 Xrotation Yrotation Zrotation
					JOINT LeftArm
					{
						OFFSET 9.825497 2.506317 -1.597400
						CHANNELS 3 Xrotation Yrotation Zrotation
						JOINT LeftForeArm
						{
							OFFSET 21.966244 0.000000 0.000000
							CHANNELS 3 Xrotation Yrotation Zrotation
							JOINT LeftHand
							{
								OFFSET 33.879036 0.000000 0.000000
								CHANNELS 3 Xrotation Yrotation Zrotation
								JOINT LeftHandThumb1
								{
									OFFSET 6.715286 -2.359680 3.363841
									CHANNELS 3 Xrotation Yrotation Zrotation
									JOINT LeftHandThumb2
									{
										OFFSET 2.507072 -1.447464 1.447461
										CHANNELS 3 Xrotation Yrotation Zrotation
										JOINT LeftHandThumb3
										{
											OFFSET 2.898338 -1.673355 1.673357
											CHANNELS 3 Xrotation Yrotation Zrotation
											End Site
											{
												OFFSET -0.295959 3.727692 -0.131651
											}
										}
									}
								}
								JOINT LeftHandIndex1
								{
									OFFSET 14.190811 -0.254547 3.840278
									CHANNELS 3 Xrotation Yrotation Zrotation
									JOINT LeftHandIndex2
									{
										OFFSET 3.551727 0.000000 -0.000000
										CHANNELS 3 Xrotation Yrotation Zrotation
										JOINT LeftHandIndex3
										{
											OFFSET 2.894196 0.000000 0.000000
											CHANNELS 3 Xrotation Yrotation Zrotation
											End Site
											{
												OFFSET -1.000603 2.690872 0.366626
											}
										}
									}
								}
								JOINT LeftHandMiddle1
								{
									OFFSET 13.776489 0.000000 0.000000
									CHANNELS 3 Xrotation Yrotation Zrotation
									JOINT LeftHandMiddle2
									{
										OFFSET 3.438232 0.000000 0.000000
										CHANNELS 3 Xrotation Yrotation Zrotation
										JOINT LeftHandMiddle3
										{
											OFFSET 3.691551 0.000000 0.000000
											CHANNELS 3 Xrotation Yrotation Zrotation
											End Site
											{
												OFFSET -1.082298 3.499527 0.457670
											}
										}
									}
								}
								JOINT LeftHandRing1
								{
									OFFSET 13.966164 -0.268127 -3.067488
									CHANNELS 3 Xrotation Yrotation Zrotation
									JOINT LeftHandRing2
									{
										OFFSET 3.162567 0.000000 0.000000
										CHANNELS 3 Xrotation Yrotation Zrotation
										JOINT LeftHandRing3
										{
											OFFSET 3.324348 0.000000 0.000000
											CHANNELS 3 Xrotation Yrotation Zrotation
											End Site
											{
												OFFSET -0.861900 3.184998 0.405154
											}
										}
									}
								}
								JOINT LeftHandPinky1
								{
									OFFSET 13.131393 -0.168503 -5.746925
									CHANNELS 3 Xrotation Yrotation Zrotation
									JOINT LeftHandPinky2
									{
										OFFSET 2.849182 0.000000 0.000000
										CHANNELS 3 Xrotation Yrotation Zrotation
										JOINT LeftHandPinky3
										{
											OFFSET 2.805038 0.000000 0.000000
											CHANNELS 3 Xrotation Yrotation Zrotation
											End Site
											{
												OFFSET -0.882500 2.642609 0.325652
											}
										}
									}
								}
							}
							JOINT Left_Sleeve
							{
								OFFSET 6.592125 -0.646545 0.805568
								CHANNELS 3 Xrotation Yrotation Zrotation
								End Site
								{
									OFFSET -0.000179 20.275787 -0.000000
								}
							}
						}
					}
				}
				JOINT RightShoulder
				{
					OFFSET -5.731700 15.108002 -2.763700
					CHANNELS 3 Xrotation Yrotation Zrotation
					JOINT RightArm
					{
						OFFSET -9.825497 2.506317 -1.597400
						CHANNELS 3 Xrotation Yrotation Zrotation
						JOINT RightForeArm
						{
							OFFSET -21.966242 0.000000 0.000000
							CHANNELS 3 Xrotation Yrotation Zrotation
							JOINT RightHand
							{
								OFFSET -33.879032 0.000000 0.000000
								CHANNELS 3 Xrotation Yrotation Zrotation
								JOINT RightHandThumb1
								{
									OFFSET -6.715286 -2.359680 3.363841
									CHANNELS 3 Xrotation Yrotation Zrotation
									JOINT RightHandThumb2
									{
										OFFSET -2.507072 -1.447464 1.447461
										CHANNELS 3 Xrotation Yrotation Zrotation
										JOINT RightHandThumb3
										{
											OFFSET -2.898338 -1.673355 1.673357
											CHANNELS 3 Xrotation Yrotation Zrotation
											End Site
											{
												OFFSET 0.295959 3.727692 -0.131651
											}
										}
									}
								}
								JOINT RightHandIndex1
								{
									OFFSET -14.190811 -0.254547 3.840278
									CHANNELS 3 Xrotation Yrotation Zrotation
									JOINT RightHandIndex2
									{
										OFFSET -3.551727 0.000000 -0.000000
										CHANNELS 3 Xrotation Yrotation Zrotation
										JOINT RightHandIndex3
										{
											OFFSET -2.894196 0.000000 0.000000
											CHANNELS 3 Xrotation Yrotation Zrotation
											End Site
											{
												OFFSET 1.000603 2.690872 0.366626
											}
										}
									}
								}
								JOINT RightHandMiddle1
								{
									OFFSET -13.776489 0.000000 0.000000
									CHANNELS 3 Xrotation Yrotation Zrotation
									JOINT RightHandMiddle2
									{
										OFFSET -3.438232 0.000000 0.000000
										CHANNELS 3 Xrotation Yrotation Zrotation
										JOINT RightHandMiddle3
										{
											OFFSET -3.691551 0.000000 0.000000
											CHANNELS 3 Xrotation Yrotation Zrotation
											End Site
											{
												OFFSET 1.082298 3.499527 0.457670
											}
										}
									}
								}
								JOINT RightHandRing1
								{
									OFFSET -13.966164 -0.268127 -3.067488
									CHANNELS 3 Xrotation Yrotation Zrotation
									JOINT RightHandRing2
									{
										OFFSET -3.162567 0.000000 0.000000
										CHANNELS 3 Xrotation Yrotation Zrotation
										JOINT RightHandRing3
										{
											OFFSET -3.324348 0.000000 0.000000
											CHANNELS 3 Xrotation Yrotation Zrotation
											End Site
											{
												OFFSET 0.861900 3.184998 0.405154
											}
										}
									}
								}
								JOINT RightHandPinky1
								{
									OFFSET -13.131393 -0.168503 -5.746925
									CHANNELS 3 Xrotation Yrotation Zrotation
									JOINT RightHandPinky2
									{
										OFFSET -2.849182 0.000000 0.000000
										CHANNELS 3 Xrotation Yrotation Zrotation
										JOINT RightHandPinky3
										{
											OFFSET -2.805038 0.000000 0.000000
											CHANNELS 3 Xrotation Yrotation Zrotation
											End Site
											{
												OFFSET 0.882500 2.642609 0.325652
											}
										}
									}
								}
							}
							JOINT Right_Sleeve
							{
								OFFSET -6.592125 -0.646545 0.805568
								CHANNELS 3 Xrotation Yrotation Zrotation
								End Site
								{
									OFFSET 0.000179 20.275787 -0.000000
								}
							}
						}
					}
				}
				JOINT Bind_Right_JacketString
				{
					OFFSET -3.534800 11.969597 7.200700
					CHANNELS 3 Xrotation Yrotation Zrotation
					JOINT Bind_Right_JacketString1
					{
						OFFSET -0.319900 -6.102600 2.794100
						CHANNELS 3 Xrotation Yrotation Zrotation
						End Site
						{
							OFFSET 0.000000 6.719452 0.000000
						}
					}
				}
				JOINT Bind_Left_JacketString
				{
					OFFSET 2.904800 11.969597 7.200700
					CHANNELS 3 Xrotation Yrotation Zrotation
					JOINT Bind_Left_JacketString1
					{
						OFFSET 0.364800 -5.904503 3.186800
						CHANNELS 3 Xrotation Yrotation Zrotation
						End Site
						{
							OFFSET 0.000000 6.719513 0.000000
						}
					}
				}
				JOINT HairE
				{
					OFFSET 5.915200 17.612701 -11.592200
					CHANNELS 3 Xrotation Yrotation Zrotation
					JOINT HairE1
					{
						OFFSET 0.289200 -7.171898 -1.284500
						CHANNELS 3 Xrotation Yrotation Zrotation
						End Site
						{
							OFFSET 0.000000 7.291756 0.000000
						}
					}
				}
				JOINT HairF
				{
					OFFSET -0.864800 17.612701 -11.592200
					CHANNELS 3 Xrotation Yrotation Zrotation
					JOINT HairF1
					{
						OFFSET 0.000000 -14.087097 -2.127501
						CHANNELS 3 Xrotation Yrotation Zrotation
						End Site
						{
							OFFSET 0.000000 14.246841 0.000000
						}
					}
				}
				JOINT HairG
				{
					OFFSET -8.087700 17.612701 -11.592200
					CHANNELS 3 Xrotation Yrotation Zrotation
					JOINT HairG1
					{
						OFFSET -0.293600 -6.081398 -0.910100
						CHANNELS 3 Xrotation Yrotation Zrotation
						End Site
						{
							OFFSET 0.000000 6.156120 0.000000
						}
					}
				}
			}
		}
	}
	JOINT Pouch
	{
		OFFSET 0.000000 4.394501 10.847300
		CHANNELS 3 Xrotation Yrotation Zrotation
		End Site
		{
			OFFSET 0.000000 21.880577 0.000000
		}
	}
	JOINT Bag
	{
		OFFSET -13.229000 4.813004 -0.593300
		CHANNELS 3 Xrotation Yrotation Zrotation
		End Site
		{
			OFFSET 0.000000 21.880577 0.000000
		}
	}
	JOINT OccupyGuyFacialAnim_Joint
	{
		OFFSET 1.000000 -70.206398 -1.655000
		CHANNELS 3 Xrotation Yrotation Zrotation
		End Site
		{
			OFFSET 0.000000 21.880577 0.000000
		}
	}
}
MOTION
Frames: 4
Frame Time: 0.016667
-0.411999 69.728218 -2.255336 1.019614 3.206599 -0.527985 0.000000 -0.000000 -0.000000 -11.772056 9.559463 5.795754 24.559656 -1.833369 1.818019 -14.073104 0.896044 -4.775808 -0.000000 -0.000000 -0.000000 0.000000 0.000000 -0.000000 -8.560040 -6.380449 -5.122923 24.272208 -8.985357 7.550194 -15.677564 -16.417630 -0.040402 -0.000000 0.000000 0.000000 0.000000 -0.000000 -0.000000 19.038932 -0.904289 -1.213887 1.223064 -0.119061 0.413203 1.222982 -0.102590 0.414474 17.491916 0.957045 1.398485 10.813752 -0.678496 3.594865 -0.000001 0.000000 0.000000 -0.000001 0.000000 0.000000 -0.000001 0.000000 0.000000 -0.000001 0.000000 0.000000 -0.000001 -0.000000 -0.000000 -0.000001 0.000000 0.000000 -0.000001 -0.000000 -0.000000 -0.000001 0.000000 0.000000 -0.000001 0.000000 0.000000 11.672671 -37.520616 -0.316558 11.271311 19.967078 -51.862931 -0.000003 -34.690804 0.000002 2.574874 -0.956511 2.461500 -1.708929 11.916056 7.382948 4.613913 16.205058 1.361364 0.000002 0.000001 -0.000001 0.562426 2.730267 -23.275999 0.897619 3.404358 -29.533557 -0.000002 -0.000000 -0.000000 0.723095 3.076877 -26.493836 0.834081 3.289882 -28.445298 0.000003 0.000001 0.000001 0.759390 3.148803 -27.218854 1.519201 4.319077 -38.743039 -0.000003 0.000000 -0.000001 2.755439 6.847005 -28.124386 1.536459 0.254078 -39.161074 0.000002 -0.000001 0.000001 0.000003 0.000001 0.000001 0.491477 -2.548974 6.180815 3.745279 20.212618 34.029450 0.000008 9.536106 0.000014 23.378774 19.150915 -10.871798 -1.994372 -12.184623 -7.943387 5.444748 -17.292026 -0.860477 -0.000001 -0.000002 0.000001 0.461133 -2.494408 20.944386 1.026101 -3.640528 31.472241 0.000001 -0.000001 0.000000 0.535728 -2.680977 22.596330 1.057789 -3.691695 31.967621 -0.000001 -0.000003 -0.000001 0.434005 -2.422390 20.311907 1.427573 -4.225567 37.320051 0.000003 0.000000 -0.000002 0.161429 -1.492522 12.345134 1.468722 -4.278865 37.875004 -0.000002 -0.000001 0.000000 0.000001 -0.000001 -0.000000 0.000001 0.000000 0.000000 0.000003 0.000000 0.000000 0.000001 0.000000 -0.000000 0.000001 0.000000 -0.000000 0.000001 0.000000 0.000000 0.000003 0.000000 0.000000 0.000001 0.000000 -0.000000 0.000001 0.000000 -0.000000 0.000001 0.000000 0.000000 0.000003 0.000000 0.000000 0.000000 -0.000000 -0.000000 0.000000 -0.000000 -0.000000 0.000000 -0.000000 -0.000000 
-0.400468 69.740570 -2.190891 0.970276 3.177045 -0.528298 0.000000 -0.000000 -0.000000 -11.598470 9.610113 5.803556 24.450559 -1.852474 1.792913 -14.090588 0.895124 -4.763751 -0.000000 0.000001 -0.000000 -0.000000 -0.000000 0.000000 -8.384987 -6.356688 -5.087801 24.138416 -9.003501 7.499249 -15.657362 -16.427793 0.000916 0.000000 0.000000 0.000000 0.000001 0.000000 -0.000000 18.772625 -0.894807 -1.214343 1.229634 -0.117464 0.406143 1.229544 -0.101461 0.407323 17.464852 0.625444 1.445075 10.818755 -1.791894 4.166016 0.000003 0.000000 -0.000000 0.000003 0.000000 -0.000000 0.000003 0.000000 -0.000000 0.000003 0.000000 -0.000000 0.000005 -0.000000 -0.000000 0.000003 0.000000 -0.000000 0.000005 -0.000000 -0.000000 0.000003 0.000000 -0.000000 0.000003 0.000000 -0.000000 11.432078 -37.413406 -0.403142 11.910118 20.221629 -52.024543 -0.000006 -34.586978 -0.000009 1.537131 -1.822075 2.928773 -1.708936 11.916054 7.382946 4.613916 16.205063 1.361362 0.000001 0.000002 -0.000001 0.543297 2.685397 -22.870964 0.876733 3.367314 -29.180218 -0.000003 -0.000002 -0.000002 0.704641 3.039384 -26.123568 0.803733 3.233326 -27.911949 -0.000001 0.000002 -0.000001 0.742641 3.115649 -26.858197 1.478261 4.267704 -38.196160 -0.000000 -0.000000 0.000000 2.720230 6.830896 -27.790648 1.481092 0.185214 -38.428707 -0.000002 -0.000001 -0.000001 0.000000 -0.000000 -0.000000 0.477897 -2.717889 6.166506 4.034788 19.963352 34.183256 0.000006 9.601061 0.000011 23.696955 18.707314 -11.098302 -1.994110 -12.184471 -7.943365 5.444945 -17.291978 -0.860848 0.000002 -0.000001 0.000000 0.496365 -2.584486 21.739591 1.040593 -3.664075 31.699803 -0.000001 -0.000000 0.000000 0.569953 -2.761727 23.317439 1.074167 -3.717762 32.221281 -0.000001 0.000001 -0.000001 0.462905 -2.499000 20.985056 1.445583 -4.249051 37.563824 0.000002 0.000001 -0.000002 0.180800 -1.578373 13.067976 1.485682 -4.300530 38.101759 -0.000001 0.000001 0.000001 0.000002 -0.000002 -0.000000 0.000000 0.000000 -0.000000 0.000000 0.000000 -0.000000 0.000000 0.000000 -0.000000 0.000000 0.000000 -0.000000 0.000000 0.000000 -0.000000 0.000000 0.000000 -0.000000 0.000000 0.000000 -0.000000 0.000000 0.000000 -0.000000 0.000000 0.000000 -0.000000 0.000000 0.000000 -0.000000 0.000000 -0.000000 -0.000000 0.000000 -0.000000 -0.000000 0.000000 -0.000000 -0.000000 
-0.390652 69.749313 -2.134294 0.923127 3.160328 -0.516716 -0.000000 0.000000 0.000000 -11.443391 9.646165 5.794261 24.360510 -1.864647 1.775586 -14.107853 0.894746 -4.755982 -0.000000 0.000000 0.000000 0.000001 0.000001 -0.000000 -8.241251 -6.351462 -5.079896 24.049637 -9.011097 7.464546 -15.655827 -16.427225 0.035339 -0.000000 0.000000 -0.000000 -0.000001 -0.000000 -0.000001 18.532532 -0.869724 -1.237516 1.234584 -0.113720 0.407004 1.234492 -0.097862 0.408095 17.433470 0.332750 1.495481 10.826393 -2.735813 4.630161 -0.000002 0.000000 -0.000000 -0.000002 0.000000 -0.000000 -0.000002 0.000000 -0.000000 -0.000002 0.000000 -0.000000 0.000002 0.000000 -0.000000 -0.000002 0.000000 -0.000000 0.000002 0.000000 -0.000000 -0.000002 0.000000 -0.000000 -0.000002 0.000000 -0.000000 11.198571 -37.286037 -0.490905 12.400885 20.323667 -52.234456 0.000009 -34.431486 -0.000003 0.428599 -2.925349 3.387647 -1.708928 11.916055 7.382947 4.613917 16.205059 1.361360 0.000001 -0.000000 -0.000004 0.526306 2.644753 -22.505198 0.860854 3.338762 -28.908660 -0.000002 -0.000002 -0.000002 0.692337 3.014035 -25.875636 0.783535 3.194951 -27.551694 0.000002 0.000002 -0.000001 0.738406 3.107085 -26.747636 1.455586 4.238803 -37.890495 -0.000002 -0.000001 -0.000000 2.724823 6.836776 -27.806721 1.456346 0.153834 -38.097474 0.000000 -0.000003 -0.000001 0.000003 -0.000001 -0.000001 0.469251 -2.842995 6.172175 4.088876 19.748925 34.584806 0.000006 9.610803 0.000004 24.143296 18.313609 -11.302989 -1.993839 -12.184326 -7.943345 5.445108 -17.291927 -0.861169 -0.000003 -0.000001 0.000002 0.529412 -2.665752 22.460845 1.057836 -3.691774 31.968523 -0.000002 0.000001 0.000001 0.608142 -2.848546 24.097553 1.098616 -3.756196 32.596292 -0.000000 0.000001 -0.000001 0.504163 -2.603884 21.911614 1.480785 -4.294313 38.036521 0.000002 -0.000003 -0.000001 0.215121 -1.719460 14.260261 1.529389 -4.355521 38.680833 -0.000001 0.000003 -0.000001 -0.000002 0.000000 -0.000000 0.000003 0.000000 0.000000 0.000003 -0.000000 -0.000000 0.000003 0.000000 -0.000000 0.000003 0.000000 -0.000000 0.000003 0.000000 0.000000 0.000003 -0.000000 -0.000000 0.000003 0.000000 -0.000000 0.000003 0.000000 -0.000000 0.000003 0.000000 0.000000 0.000003 -0.000000 -0.000000 -0.000000 0.000000 0.000000 -0.000000 0.000000 0.000000 -0.000000 0.000000 0.000000 
-0.382114 69.754372 -2.085162 0.877023 3.163943 -0.493680 -0.000000 0.000000 -0.000000 -11.307919 9.665892 5.767275 24.292358 -1.875779 1.768136 -14.125852 0.894894 -4.751835 0.000000 0.000000 -0.000000 -0.000001 0.000000 -0.000001 -8.126783 -6.362760 -5.096875 24.006218 -9.008288 7.443579 -15.673988 -16.425148 0.064233 -0.000000 0.000002 0.000000 0.000000 0.000000 -0.000001 18.318812 -0.832822 -1.279150 1.237615 -0.108356 0.414652 1.237492 -0.092382 0.415663 17.402050 0.082499 1.541181 10.840828 -3.516358 4.995898 0.000001 -0.000000 -0.000000 0.000001 -0.000000 -0.000000 0.000001 -0.000000 -0.000000 0.000001 -0.000000 -0.000000 0.000001 0.000000 0.000000 0.000001 -0.000000 -0.000000 0.000001 0.000000 0.000000 0.000001 -0.000000 -0.000000 0.000001 -0.000000 -0.000000 10.974279 -37.134181 -0.580670 12.738220 20.288163 -52.482480 -0.000015 -34.226795 -0.000010 -0.546873 -4.175031 3.785979 -1.708927 11.916056 7.382946 4.613914 16.205058 1.361360 0.000001 -0.000000 -0.000004 0.510260 2.605777 -22.155196 0.848785 3.316854 -28.700759 -0.000002 0.000000 0.000002 0.684170 2.997154 -25.712942 0.771538 3.171917 -27.335839 0.000001 0.000000 -0.000001 0.743605 3.117373 -26.827851 1.447895 4.228942 -37.786259 -0.000001 -0.000001 -0.000001 2.760623 6.859914 -28.095799 1.456535 0.154054 -38.099758 -0.000003 -0.000002 -0.000001 0.000003 0.000000 0.000000 0.465135 -2.927775 6.199371 3.910890 19.563082 35.227469 -0.000001 9.562525 -0.000006 24.620407 18.025281 -11.454627 -1.993610 -12.184203 -7.943307 5.445230 -17.291889 -0.861495 0.000000 -0.000001 0.000001 0.551001 -2.717411 22.921264 1.069507 -3.710353 32.149134 -0.000004 0.000001 0.000002 0.641213 -2.921306 24.754945 1.120476 -3.790073 32.928229 -0.000001 -0.000001 0.000003 0.549801 -2.714553 22.895769 1.520027 -4.343850 38.557538 0.000001 -0.000000 0.000001 0.260316 -1.888421 15.696804 1.584944 -4.423805 39.406674 -0.000001 -0.000001 0.000000 0.000004 -0.000001 -0.000002 0.000000 -0.000000 0.000000 0.000002 0.000000 -0.000000 0.000000 -0.000000 0.000000 0.000000 -0.000000 0.000000 0.000000 -0.000000 0.000000 0.000002 0.000000 -0.000000 0.000000 -0.000000 0.000000 0.000000 -0.000000 0.000000 0.000000 -0.000000 0.000000 0.000002 0.000000 -0.000000 -0.000000 0.000000 -0.000000 -0.000000 0.000000 -0.000000 -0.000000 0.000000 -0.000000 
